# xmcd
#
# Track frame offsets:
#	192
#	5815
#	27295
#	41077
#	61250
#	78715
#	79717
#	82310
#	92862
#	101962
#	120952
#	138630
#	139937
#	152822
#	170817
#	189435
#	214230
#	216495
#
# Disc length: 3120 seconds
#
# Revision: 2
# Processed by: cddbd v1.5.2PL0 Copyright (c) Steve Scherf et al.
# Submitted via: EZCDAudioConverter 2.2.0.1
#
DISCID=100c2e12
DTITLE=Grady Gaines And The Texas Upsetters - Black Top Blues-A-Rama Volume 
DYEAR=1900
DGENRE=blues
TTITLE0=Grady Gaines And The Texas Upsetters - Grady's Slow Theme And Introduc
TTITLE0=tion
TTITLE1=Grady Gaines And The Texas Upsetters - Let Your Thing Hang Down
TTITLE2=Grady Gaines And The Texas Upsetters - Lonesome Saxophone
TTITLE3=Paul David Roberts - Miracle
TTITLE4=Paul David Roberts - I Found A Sure Enough Good Love
TTITLE5=Grady Gaines And The Texas Upsetters - Grady's Fast Chaser Theme
TTITLE6=Joe Medwick - Introduction
TTITLE7=Joe Medwick - Don't Cry No More
TTITLE8=Joe Medwick - C.C. Rider
TTITLE9=Joe Medwick - If I Don't Get Involved
TTITLE10=Joe Medwick - I Pity The Fool
TTITLE11=Big Robert Smith - Introduction
TTITLE12=Big Robert Smith - Can't Turn You Loose
TTITLE13=Big Robert Smith - 24 Hours Of The Day
TTITLE14=Big Robert Smith - Driving Wheel
TTITLE15=Big Robert Smith - Big Robert's Strokin' Too
TTITLE16=Grady Gaines And The Texas Upsetters - Grady's Slow Theme
TTITLE17=Grady Gaines And The Texas Upsetters - Midnight Shuffle
EXTD=
EXTT0=
EXTT1=
EXTT2=
EXTT3=
EXTT4=
EXTT5=
EXTT6=
EXTT7=
EXTT8=
EXTT9=
EXTT10=
EXTT11=
EXTT12=
EXTT13=
EXTT14=
EXTT15=
EXTT16=
EXTT17=
PLAYORDER=
